<svg width="69" height="52" viewBox="0 0 69 52" fill="none" xmlns="http://www.w3.org/2000/svg">
<path d="M66.321 16.2002L66.3323 16.2541L66.321 16.2002ZM11.2311 0.668295L11.69 0.618543L11.6629 1.11373L12.4499 1.3743L12.4876 1.80742L13.1181 1.65463L13.6662 2.73847L18.1733 3.47377L19.1551 5.44569L18.9253 7.35008L18.4889 8.1188L20.0656 8.83022L20.2848 8.59285L20.5741 8.94345L21.0739 8.56489L21.9276 9.35747L22.9062 9.50617L23.128 9.82879L22.9795 10.2115L24.2598 10.678L23.7342 11.1759L26.129 10.9979L25.8722 11.8682L26.3304 12.7147L28.0452 12.9896L29.058 12.1984L29.6945 12.345L32.1963 10.9126L33.5796 12.1268L33.5506 14.3736L34.7279 15.1962L35.1907 15.085L35.1742 15.7377L36.5324 15.0263L36.7014 14.4254L37.6437 14.1812L39.1649 14.7808L39.1326 15.1375L39.9078 15.0072L40.2544 15.4253L40.7371 14.9697L41.7698 14.9302L44.741 16.2193L45.1359 16.8734L47.3571 18.061L47.8298 17.4832L48.7707 17.7963L49.6093 17.4314L49.5769 17.0494L50.1045 16.9935L50.1441 16.5618L51.2858 16.3189L51.6945 15.4431L52.0669 15.467L52.3382 17.617L53.3214 18.3495L54.6162 18.2377L54.7496 18.8284L55.3934 18.8679L55.7876 19.2417L56.1731 18.2868L57.5241 17.7745L59.4508 18.7172L60.0853 18.5173L60.4432 17.853L61.2164 18.2909L61.6687 18.2179L61.9909 17.3168L62.8057 17.8359L63.3511 17.0392L63.8859 18.1251L64.7819 18.533L64.8677 18.9688L65.3128 18.9702L65.3768 18.5405L66.2094 17.8154L66.3303 16.2582L66.873 16.649L67.1893 16.2303L68.0595 15.9983L68.0893 16.31L67.3379 16.9731L67.5419 17.2677L67.9909 17.2002L68.0292 17.662L68.5666 18.0644L68.049 18.505L68.148 18.7997L68.562 18.7076L68.8981 19.1394L67.8251 20.2839L66.8605 20.7409L65.8285 21.9612L65.3808 21.9298L65.044 22.5123L64.3666 22.3364L64.4227 23.4536L64.0048 23.4045L63.911 23.6494L63.6594 23.3009L62.6809 24.0362L62.5125 25.7584L62.1507 26.1268L62.4141 26.7686L63.631 27.0797L63.2507 27.4452L63.6258 27.6628L63.4594 28.3736L63.9282 28.349L64.3237 29.085L65.5346 29.6225L65.355 30.4696L65.6139 30.5324L65.1543 31.2554L65.3577 32.0459L65.87 32.5623L65.8364 32.9306L65.2448 32.8419L64.9674 32.4606L64.9225 32.7178L64.6796 32.5827L64.671 32.2335L63.8417 32.0541L63.4679 32.5561L63.1946 32.372L62.9767 33.168L62.5673 33.1809L62.22 33.659L61.8423 33.4947L61.5347 34.1174L61.6264 34.543L61.946 34.6331L61.8787 35.2585L62.881 36.1173L62.4155 36.7994L62.6069 37.3498L61.9288 37.0163L61.8694 36.6132L60.8255 36.4529L60.4987 35.6091L59.4316 35.5894L59.0606 35.0082L58.6089 35.2824L58.5026 36.0573L57.6978 35.8445L57.8939 36.3581L57.5756 36.6971L57.5683 37.4221L56.4577 36.9065L56.1547 37.2591L55.5129 36.9761L55.0652 39.0755L54.5046 38.8156L53.9632 39.0707L53.0705 40.0939L53.227 42.2657L53.1286 42.6913L52.6235 42.7363L52.1269 43.2574L52.3772 43.5828L51.7387 46.6263L50.0748 46.0629L49.6324 46.9421L49.8127 47.6897L49.332 47.2429L49.0309 47.5062L48.7879 47.2286L48.2802 47.2858L48.3561 46.8186L47.9592 46.4237L47.5961 46.4516L47.33 47.1105L46.4565 47.3479L45.5519 46.6535L44.7747 47.7476L44.2082 48.0177L43.9718 49.4644L43.6568 49.5128L43.4687 50.3429L42.9622 50.1785L42.0662 49.1724L41.0765 48.8867L41.5367 48.1616L41.4205 47.3847L41.6806 46.9816L40.8691 47.1098L40.2227 46.5491L39.9131 46.9645L39.0606 46.6774L38.9378 45.0895L38.4142 44.4469L37.7579 44.5247L37.917 43.9265L36.5311 44.6686L35.5281 43.6025L34.1389 43.6236L33.579 43.2526L33.0243 44.9605L32.3733 45.3725L32.5826 47.015L31.3644 46.6855L31.2501 47.2762L30.815 47.2755L30.5588 47.9112L30.1191 47.502L27.2997 47.8771L27.2918 48.3369L25.4773 48.873L25.7361 49.3941L24.6308 50.1778L24.2994 50.0598L24.4473 49.2311L24.131 49.6172L23.2621 49.6622L22.9596 50.2276L21.9851 50.2877L21.7381 48.873L21.1056 49.0333L21.0812 48.1132L20.5655 47.8328L18.9564 48.974L18.6705 49.9507L17.4846 49.6601L17.3915 50.1028L16.7807 50.2229L16.8355 50.7965L16.3938 51.613L15.8544 50.8088L15.342 50.922L15.412 50.4889L14.8547 50.0128L14.2142 49.9173L13.9263 49.4862L14.1383 49.3655L13.6239 49.0592L13.6378 48.592L14.0828 48.2489L13.6213 47.2619L13.2931 47.2892L13.4437 47.4816L13.1267 47.8117L12.8204 47.4618L12.5787 47.7428L12.1753 47.4277L11.962 47.5559L12.0505 48.1289L11.5916 47.6623L11.5084 48.2162L11.0904 48.5818L10.2195 46.5389L9.46548 46.1365L8.58465 47.5436L7.74874 47.7783L5.65697 48.2141L2.63684 47.8697L3.23373 46.3213L2.62759 45.923L2.85144 45.4619L2.39584 45.0779L2.38329 44.5772L2.01353 44.6482L1.0964 43.8522L1.14592 43.0875L0.642794 42.5003L0.502811 40.3101L0.147583 40.203L0.689019 38.5271L0.38463 37.6301L0.582042 37.3546L1.1162 37.2277L1.40673 36.564L2.11193 36.5217L3.206 35.4904L3.54737 35.6398L4.35225 35.3042L4.73719 34.6998L5.27335 34.6473L5.08319 34.5354L5.35061 34.2572L5.48068 34.4134L5.87421 34.0293L6.28094 34.3861L6.7986 34.0232L6.72993 33.6985L7.33804 33.6153L6.94914 33.159L7.51434 33.0362L8.42553 31.7021L10.6296 30.4572L10.5345 29.5425L10.8772 29.1517L11.6206 28.9846L12.2578 29.4191L12.3767 29.9511L13.5196 30.0794L13.4919 29.8331L13.9752 29.915L14.1515 28.7704L14.8243 28.7056L15.1267 29.4812L15.7751 29.2445L16.3225 29.8215L16.823 29.7192L16.9788 29.0549L16.9168 29.5855L17.206 29.724L17.2515 28.8987L18.2875 29.0262L17.8722 28.5167L18.1442 27.9894L17.2634 27.3046L16.8553 27.3551L16.8785 26.6703L15.4225 26.4384L15.2152 25.8238L14.4288 25.3818L13.6682 25.5769L12.3615 24.7305L11.8696 24.8737L11.8834 24.3369L10.8303 23.2135L10.2499 23.1637L9.82268 22.4447L9.73092 20.9325L10.6685 21.2408L11.1334 20.5963L11.7738 20.85L12.0835 19.7232L11.9402 18.8208L10.5675 18.6543L9.72364 17.6394L9.32286 17.859L8.22217 17.6107L8.22084 16.5344L9.05478 16.6852L9.21523 16.3148L10.2327 16.1313L10.7134 15.2398L10.7028 14.5529L13.3347 15.2439L15.3004 14.8026L15.132 14.1028L14.0736 13.8954L13.6919 12.7986L12.9914 13.1799L12.8065 13.0169L12.6771 12.7372L13.0594 11.916L12.9049 11.0606L12.4645 10.9242L11.9072 11.5047L11.3922 11.1677L11.5189 10.6596L10.963 10.4488L10.8164 10.826L10.2908 10.5941L10.2307 9.95498L9.9158 9.78173L10.2162 9.47547L10.1357 8.15631L9.4437 7.77502L9.85768 7.34666L8.73389 7.38621L9.27796 5.67143L8.94188 5.11826L8.16075 4.72878L8.54373 4.01395L8.41958 3.67563L7.56189 3.90141L7.20666 3.71655L7.61537 3.2657L8.30535 2.73298L7.84712 2.61089L7.77846 2.02566L8.64871 1.69143L9.97786 1.94381L10.9201 1.05027L10.9518 0.612366L11.2311 0.668284V0.668295Z" fill="black"/>
</svg>
