<svg width="106" height="83" viewBox="0 0 106 83" fill="none" xmlns="http://www.w3.org/2000/svg">
<path d="M31.3081 0.814415L32.0971 1.76457L33.6739 1.69704L34.7911 1.62883L35.7762 0.814415L36.8274 0.407208L37.8792 0.950151L38.9957 2.64719L40.3097 4.6157L42.0185 6.65174L42.7607 8.17212L44.9944 9.66521L47.1628 10.7511L49.0023 12.5163L51.1707 13.2626L52.8788 15.0953L53.9307 16.0455L55.7042 16.2487L57.2156 17.9458L57.2809 19.1674L56.9528 20.1858L57.413 21.4756L58.2014 22.6972L59.9749 23.2402H62.1432L64.5744 23.9871L66.0197 25.3444L66.6114 27.109L67.2683 28.3306L69.5681 28.6021L72.2106 27.3545L74.4958 26.7693H76.3353L77.6691 24.5975L79.1805 23.2402L80.9547 22.833L82.4 22.2218L83.714 21.2041L86.0138 21.0002L87.9193 21.6113L89.1019 22.29L89.8903 21.8146V20.05L90.6126 19.1674L91.7958 18.8284L93.438 20.1858L94.2924 21.2041L95.3435 21.4756L97.3805 21.9503L98.9573 22.4257L100.271 21.8146L101.191 21.4756L102.045 22.9005L102.834 24.2585L103.951 24.869L105.33 25.8874L105.724 26.9732L105.396 28.1273L105.593 29.349L105.528 30.2309L104.937 31.385L104.871 32.1994L104.214 33.1496L104.082 34.1679L104.148 35.9325L103.622 37.2898L103.097 38.5797L102.702 39.5298L102.44 41.0229L101.454 41.5666L100.376 42.0549L98.9969 42.7336V44.091L98.4713 44.9736L97.2227 44.9054L95.8427 44.9736L95.1857 45.5841L95.3171 46.3309L95.9087 47.4168L96.2455 48.8397L95.6704 51.3845L94.3155 52.9118L93.4941 53.2507L92.1801 52.9118L90.7018 52.4029L89.7978 52.8272L88.4839 53.0816L87.7041 53.336L87.3752 54.1422L87.6625 55.3298L88.1557 56.3904L88.7308 57.3665L89.6341 58.893L89.3878 59.8268L88.6892 60.4632L87.7041 60.8867L87.5397 61.8205L87.6625 62.9235L87.3468 63.4118L89.3865 65.3483L89.5027 66.4922L91.0299 67.1272L94.1313 67.3386L94.2092 67.8666L93.3719 69.8521L93.3382 70.7266L94.6667 72.247L94.9797 73.708L95.8381 74.4344L96.2659 75.9398L96.0045 77.0093L94.6588 77.3681L92.7816 79.0372L92.0375 78.4253L91.2716 78.6368L90.2151 79.4205L89.9101 80.9791L89.1468 80.7833L88.1511 81.4661L87.2874 81.0568L85.4419 79.2356L85.2003 77.6764L85.4301 77.1621L84.9547 75.5121L83.6896 76.3027L83.2927 77.0141L82.1762 76.9254L81.3568 77.585L80.9018 77.4793L80.3426 77.8742L80.3221 78.6218L79.9306 78.3196L78.9349 79.2254L78.4938 78.6859L78.7797 78.3264L78.7447 77.5127L80.0184 76.7412L79.6638 75.9186L79.7774 74.401L78.6206 74.8068L78.7322 75.229L77.5879 75.9657L76.7526 75.8L76.3235 76.4186L75.9352 76.0851L75.5476 76.7242L75.1132 76.5325L75.1389 77.2692L74.4034 77.3606L73.3073 75.5619L73.471 74.33L72.9983 74.1718L72.5381 73.2755L71.3469 72.6596L71.7444 71.9727L70.6701 70.8487L70.0171 70.6079L69.8527 71.0588L68.8933 71.3234L68.0039 72.2783L67.5199 72.2927L67.1145 72.7122L66.1782 72.309L65.7497 73.3288L65.3542 73.4202L65.0406 72.8424L64.3928 72.4646L64.1241 72.6542L63.9775 72.1392L63.2254 71.5376L62.8431 71.8275L62.7078 70.702L61.858 70.8221L61.3106 70.3767L60.8009 70.5479L59.6824 69.8003L59.1251 68.4341L58.6721 68.4669L58.1056 67.7309L58.4496 66.19L58.0964 66.3551L57.7576 66.0318L57.4407 66.1375L57.0888 67.3278L55.6665 67.6149L55.0432 66.8612L54.5678 66.8162L53.4836 67.3196L52.414 67.2043L50.8016 68.6081L50.2806 69.8188L48.2951 70.2894L48.1367 70.8999L46.2509 72.3159L45.1634 71.5533L44.346 71.5602L44.1624 72.569L45.2559 73.5246L45.7907 74.4809L45.5708 75.5968L45.9445 76.3962L45.2387 77.5353L44.2958 79.0379L43.4889 79.218L43.0136 80.1975L40.4933 81.3631L40.107 82.5882L39.9545 82.0139L39.6435 81.8904L39.7055 81.5118L38.9145 81.7772L37.6336 81.5575L35.8805 80.4144L35.7841 80.0917L35.106 80.2575L34.3203 79.1559L33.6844 78.9533L32.8928 79.6988L30.9027 78.8831L29.0103 79.0734L28.2331 76.9473L28.7033 76.1554L28.3427 75.135L28.9912 73.0846L28.2298 73.3691L27.8462 74.4706L26.7033 74.7578L25.9208 75.2591L24.0153 75.0552L23.0955 74.3765L21.7155 73.6978L20.6643 72.6795L19.0216 72.069L17.6422 71.0506H15.5399L15.0797 70.033L14.3567 69.3536L13.4369 68.5392L13.8311 66.8428L13.2401 65.6205L13.0427 63.5169L13.7657 62.6343L13.2401 60.4625L13.5683 59.6475L13.6343 58.6298L12.6485 57.6114L12.7145 56.6613L13.3715 55.8468L12.8453 53.7426L11.8601 52.7249L11.9255 50.7564L11.7287 49.1678L11.0718 47.4715L11.3346 45.7744V44.6203L12.1883 43.6702L13.6343 43.263L14.7508 42.7882L14.8169 41.4984L15.6706 39.9371L16.5904 39.8014L18.8248 39.7338L19.6132 39.1227L20.1387 37.0867L20.7304 35.7968V34.4395L19.5471 33.2178L17.905 32.471L16.5904 32.0637L15.802 31.4526L15.3425 30.4349L15.6053 29.349L16.525 28.7379L16.9192 27.9235L16.2622 26.4304L14.8822 26.4979L13.3055 26.2946L11.9915 25.8874L9.69177 25.6835L8.44317 24.5028L7.85222 23.2812L7.39201 21.5166L5.61849 20.634L3.58152 20.1585L2.2669 21.0412L0.822201 21.1087L0.295958 20.2943L0.230591 18.8012L0.559412 18.0543L0.230591 16.9684L0.493385 15.8825L1.15036 14.3212L2.72712 13.1678L4.3699 11.7422L5.88128 10.0452L7.32664 8.1449L7.91825 6.2446L9.23155 5.36265L11.2685 5.56592L13.8311 5.83739L16.7224 5.97312L18.1018 5.63344L16.8538 4.20856L15.7525 3.58103L16.2999 2.76935L17.6422 2.57904L18.8248 3.66561L20.5329 4.07214L21.3867 2.98693L22.5699 2.71546L23.6864 2.17184L24.6062 1.6971L26.0522 0.950214L27.038 0.135799L28.4834 0L29.5999 0.203945L31.3081 0.814415Z" fill="white"/>
</svg>
