<svg width="58" height="80" viewBox="0 0 58 80" fill="none" xmlns="http://www.w3.org/2000/svg">
<path d="M27.6941 11.6195L27.7846 12.1638L27.2682 12.6563L28.2989 12.5028L28.6588 13.0689L29.7351 13.6665L30.9969 13.5853L30.9698 12.9332L31.397 12.9182L31.4643 12.3343L31.7007 12.3589L31.776 12.3337L31.8922 12.6809L32.2138 12.5949L32.1847 11.7464L32.6878 11.3555L33.2927 9.19603L33.5825 9.19876L33.1263 8.32774L33.6439 7.75952L34.2336 7.95667L34.3537 7.20296L34.9559 7.35916L36.7532 6.76503L36.8344 7.73295L37.4254 7.74865L36.9942 7.50853L37.2834 7.03313L38.1847 6.90557L39.4214 7.81345L40.5775 7.91303L41.078 6.78689L41.4841 6.50586L41.4848 6.0448L42.1629 5.96223L42.7235 6.60751L43.3679 6.12938L43.2741 5.64439L44.3246 5.28902L44.2949 4.98208L44.6251 4.86205L44.495 4.67176L44.1457 4.92956L44.3418 3.92074L43.6446 3.60425L44.3946 3.30484L45.8723 3.48765L46.0513 4.12809L46.4871 4.44527L47.7073 3.91256L47.7733 4.67721L48.0876 4.61242L47.9866 4.99849L48.458 4.78771L48.7558 5.17989L49.3157 4.76382L48.4362 4.05309L48.8898 3.60768L49.2451 3.90987L49.5283 3.58516L50.2315 3.5981L51.2589 3.12406L51.6465 2.56816L51.3553 2.1275L51.7805 1.92974L51.7614 1.44272L52.2249 1.32334L52.3702 0.91066L52.7868 0.958387L52.7413 0.705333L52.1529 0.584632L52.2078 0.299512L53.249 0.182861L54.3913 1.04024L55.4728 1.06958L56.1041 2.34919L56.6032 2.637L56.6026 1.86354L57.0562 4.03941L56.423 5.99017L55.8129 11.1754L54.4613 15.7311L50.6984 21.6107L50.046 23.4142L49.4966 23.0806L48.6535 23.8977L48.3603 23.0247L48.87 22.8501L48.6224 22.6352L48.2236 22.8808L47.8532 22.273L47.3745 22.7512L48.1299 22.9578L47.8413 23.4721L48.2263 23.5861L48.4871 24.1249L48.3557 24.365L47.906 23.9339L47.5765 24.5L48.1952 24.897L48.8311 24.5744L48.8634 25.0976L49.2728 24.8684L49.5303 25.3308L48.9314 28.875L50.0526 31.8987L50.2791 37.3765L49.5448 37.2292L49.2959 37.502L48.5841 37.2169L48.7723 37.8479L48.1932 37.7251L48.5141 38.5109L49.6492 38.9447L49.7092 39.7154L50.2329 39.7201L50.6204 47.1836L50.0176 47.4878L48.7353 47.4918L43.7977 46.8909L42.5425 47.6999L41.6327 49.3778L41.6248 50.1309L42.1622 50.9112L40.6106 52.4316L40.1503 53.5515L38.3841 55.6551L37.5627 57.1059L37.0596 58.9394L37.6281 60.0028L39.3441 61.5238L41.0985 61.7946L39.7628 62.1063L37.8466 61.9262L36.7142 62.1541L34.7024 62.8409L34.5756 63.1083L33.7383 63.0763L33.5231 63.3444L33.7304 63.5763L32.6363 63.9555L30.3214 64.2345L27.5343 66.4254L26.9771 67.5337L26.8199 69.121L27.2306 69.0494L27.8255 69.4484L26.985 69.5159L26.0943 70.8432L25.9787 71.852L26.5624 71.7442L26.4475 73.0593L25.5449 74.1671L25.3303 74.7325L25.572 74.8716L21.9365 76.6273L21.1454 77.6429L18.7803 78.2398L18.4383 79.087L15.1904 78.4506L12.1564 75.9125L12.5083 75.5558L13.0299 75.7058L12.6866 74.7584L13.7186 73.9099L13.401 73.1119L14.2448 72.9972L14.4885 72.4796L12.9705 69.6087L13.2637 69.6455L13.7906 69.0609L14.1821 67.8618L13.6532 67.0269L13.3178 67.0508L13.3145 66.602L12.6509 65.6709L13.3409 65.3163L13.5311 64.5701L14.3036 63.7863L14.0943 63.2666L14.5116 62.8403V61.661L14.7506 61.1357L15.1263 61.1289L15.4432 59.6453L16.056 59.3623L16.3003 58.7034L15.6684 58.2757L15.535 57.2867L15.3125 57.745L15.0293 57.316L14.3478 57.7198L13.5311 57.1557L12.9223 57.1291L13.4479 55.5528L13.7008 55.4642L13.7226 54.6259L14.0567 54.5017L13.7107 54.1272L13.9147 53.6307L13.5753 53.3865L14.0672 52.2802L14.4033 52.1281L14.2521 51.1649L13.4188 50.1234L14.4139 49.74L14.6998 48.47L14.231 48.2777L14.2864 47.8002L13.7879 47.0492L13.8936 46.5519L13.0755 46.4653L11.5397 47.3418L11.3554 47.88L10.4192 48.4495L9.51656 48.217L8.91967 47.6071L8.9474 47.2756L8.5915 47.455L8.3307 47.2013L8.60274 46.2723L8.16034 45.4756L8.47002 43.0208L8.12799 42.4246L9.06295 42.3803L8.82657 41.7187L9.40695 40.3401L9.27952 39.92L8.61792 39.8075L8.30164 39.0258L5.97415 38.1247L6.76714 36.5757L7.955 36.4168L7.18972 36.3431L7.21218 35.2763L6.55454 34.9407L7.02994 34.0104L6.63444 33.685L5.61297 34.3459L3.74173 34.0983L3.25973 34.4251L3.17191 33.698L4.46805 32.8024L4.44032 31.945L4.04348 32.0166L3.19899 31.5139L2.67406 30.7588L1.61365 30.3953L1.43669 30.5985L0.844425 30.1661L0.320157 30.3817L0.12207 28.8647L0.746696 28.4527L1.11909 28.866L1.84078 28.5993L2.25412 28.0243L2.87281 28.0114L2.85432 27.4889L3.23992 27.5496L3.9702 26.9283L4.47069 27.3273L4.74272 28.2017L7.31585 28.1956L8.28712 28.3887L8.57434 28.7174L8.76252 28.3218L8.45285 27.7093L9.43666 25.693L10.2647 25.9556L10.4469 25.4352L10.8847 25.4073L11.261 25.6835L11.1323 25.9618L11.605 25.7817L11.8137 26.5361L12.3346 26.7134L12.2448 25.985L13.9622 25.6862L14.1656 25.4154L14.7612 25.4748L15.3317 26.0457L15.7932 25.7585L16.6192 26.1658L17.1309 24.8841L17.0827 24.1672L17.4162 24.3493L17.5198 23.5316L19.9536 23.4483L20.3544 22.4074L21.4465 21.0201L20.8648 20.1245L17.2617 19.617L17.3244 18.7515L18.3267 18.4343L19.1712 17.4166L19.3957 16.6226L19.4663 15.6227L18.7777 15.7516L19.2062 15.2953L18.8213 15.1903L18.7044 14.4502L19.0887 13.5335L18.985 13.0021L19.8691 12.7606L20.2019 13.1263L20.5538 12.7675L20.9355 12.9094L21.8764 11.1223L21.6743 10.4388L23.5106 9.79015L23.7417 10.1155L23.393 10.6114L23.6083 10.7321L23.8955 10.2137L24.3907 10.9954L24.6681 10.9981L24.8536 10.2642L25.2933 10.3153L26.3155 11.3678L27.6941 11.6195Z" fill="black"/>
</svg>
