<svg width="49" height="46" viewBox="0 0 49 46" fill="none" xmlns="http://www.w3.org/2000/svg">
<path d="M23.1586 2.0129L23.8955 2.961L23.6994 3.66902L24.2369 4.05577L24.4039 5.06321L24.9599 5.73233L25.7443 5.92196L26.1761 7.26295L27.3943 7.23635L27.8077 8.31473L28.5828 8.82834L29.5053 8.1217L30.2078 8.16056L30.7241 7.77245L31.5931 8.25401L32.2831 8.23492L33.1144 9.67139L34.8984 10.4688L35.7139 11.5335L36.462 10.9865L36.9209 11.7954L37.3679 11.7722L37.5686 12.2272L37.3256 12.8956L36.7829 13.3478L37.1764 13.7571L37.2702 14.8477L38.5122 15.0381L39.3791 15.7086L39.8248 15.6369L41.5653 16.9049L42.3629 16.362L44.4818 17.8298L45.5019 19.1169L48.3814 20.2192L48.3715 20.4845L47.9786 20.3208L46.8925 20.7089L46.2388 21.6011L46.4408 22.2648L44.8337 23.5628L44.6462 24.266L43.6584 25.062L42.6554 25.0518L41.9529 26.8457L41.1606 27.6935L40.3385 27.5585L39.3989 28.4602L39.6234 29.6968L40.1199 30.2841L39.9483 31.0058L39.5475 31.5555L39.0476 31.6933L39.144 32.2472L38.2745 32.9279L38.493 33.3222L37.6723 33.4613L37.6518 33.9988L38.1153 34.3146L38.1734 35.041L38.6924 35.599L38.421 37.3635L37.7429 37.1105L38.0678 38.3887L37.5369 38.7727L36.8595 38.4651L36.3068 39.0237L36.186 40.5789L35.9404 40.9936L35.6967 40.9172L35.1196 42.0556L35.2887 43.4601L34.6429 43.9443L34.8476 44.2158L34.4765 44.9572L33.844 45.3092L33.2154 45.0329L32.7532 44.1728L32.9235 43.9075L32.0843 43.8018L32.569 43.6449L32.2712 43.2241L31.8625 43.2159L31.7436 43.7431L31.294 43.8543L31.6432 42.9232L31.1711 42.4533L30.3101 42.634L29.6743 43.1586L28.9467 42.8278L28.081 43.1981L27.881 42.441L27.4775 42.9157L26.1504 43.0365L26.015 41.7971L25.6776 41.7194L25.4379 41.1764L25.3303 41.4697L24.598 41.4588L23.2867 40.2242L22.6542 40.3252L22.7526 39.8641L22.3597 39.5708L22.2745 38.5947L20.8391 37.8963L20.7017 38.7816L19.9457 37.9856L19.6974 38.2653L19.09 38.2489L19.0721 37.4031L18.429 36.4475L17.7001 36.5034L16.5116 35.5348L17.1131 35.0062L17.5476 35.3404L17.8262 34.4667L18.1002 34.7068L18.672 34.3125L19.4016 33.2717L17.502 32.9477L15.0101 31.5473L13.9332 30.5249L13.3838 28.6116L12.3472 28.1035L11.23 27.7147L9.84273 29.2214L9.31913 29.1239L8.56707 29.6798L7.77869 30.8932L7.25179 31.0365L7.15406 31.6974L6.47926 31.8079L6.41983 31.1183L5.91604 31.0794L5.97876 30.6607L6.3241 30.6934L5.98075 29.2003L4.90119 29.2562L4.28052 29.7903L3.77673 29.5843L3.80975 29.2808L3.29538 29.0277L3.39178 27.89L2.52549 26.4767L2.95402 25.7933L2.74207 25.4413L3.11909 24.9059L2.91374 24.5805L3.49677 23.9435L3.2934 23.5833L3.69221 22.7341L4.06065 22.9039L4.41258 22.5322L5.69749 20.3181L2.64699 18.808L1.58855 17.6205L0.604736 17.7255L0.854317 17.3006L2.20856 16.9472L3.86917 15.9637L4.02697 15.6042L3.92529 15.0995L3.35283 15.1124L2.90582 14.5285L3.63147 14.182L3.59053 13.4488L2.9593 13.0839L3.06561 12.6739L2.33599 11.7149L3.11182 10.7034L3.11314 9.85349L3.73314 10.228L3.81965 9.14753L3.12833 9.17278L2.97581 8.55549L3.38056 8.26629L4.11677 8.65439L3.83021 8.38565L4.22968 7.75063L3.88831 6.85572L4.472 6.53718L5.08936 5.31897L6.01904 4.91927L6.84109 5.31488L7.05833 4.81082L7.85726 4.71941L8.68724 4.0421L9.85924 3.98483L10.363 3.38117L10.6998 3.46916L10.7684 3.10083L11.5694 3.0565L12.1392 3.77269L12.4423 3.57215L12.783 3.83203L13.1422 4.50457L14.0679 4.45549L14.8734 3.96234L15.4135 4.20312L15.5964 4.65534L17.6334 4.48277L17.9609 5.44383L18.6885 6.10547L20.4191 5.97245L20.1161 4.93023L19.3006 4.14854L19.1798 3.58309L19.4353 2.37648L20.3505 1.83968L21.1276 0.0689697L22.2474 0.596224L23.1586 2.0129Z" fill="black"/>
</svg>
